HIERARCHY
ROOT joint_Root
{
	OFFSET 0.0 0.0 0.0
	CHANNELS 6 Xposition Yposition Zposition Zrotation Xrotation Yrotation 
	JOINT Hips
	{
		OFFSET -17.1583 93.1646 452.98
		CHANNELS 6 Xposition Yposition Zposition Zrotation Xrotation Yrotation 
		JOINT Spine
		{
			OFFSET 15.7357 0.0 0.0
			CHANNELS 6 Xposition Yposition Zposition Zrotation Xrotation Yrotation 
			JOINT Chest
			{
				OFFSET 8.98455 -0.406207 0.0
				CHANNELS 6 Xposition Yposition Zposition Zrotation Xrotation Yrotation 
				JOINT Neck
				{
					OFFSET 16.3773 0.0 0.0
					CHANNELS 6 Xposition Yposition Zposition Zrotation Xrotation Yrotation 
					JOINT Head
					{
						OFFSET 6.45672 0.0 0.0
						CHANNELS 6 Xposition Yposition Zposition Zrotation Xrotation Yrotation 
						End Site
						{
							OFFSET 0.0 0.0 0.0
						}
					}
				}
				JOINT Shoulder_L
				{
					OFFSET 12.9942 -0.242716 4.98039
					CHANNELS 6 Xposition Yposition Zposition Zrotation Xrotation Yrotation 
					JOINT UpperArm_L
					{
						OFFSET 5.34809 0.0 0.0
						CHANNELS 6 Xposition Yposition Zposition Zrotation Xrotation Yrotation 
						JOINT LowerArm_L
						{
							OFFSET 24.3286 1.87007e-05 0.0
							CHANNELS 6 Xposition Yposition Zposition Zrotation Xrotation Yrotation 
							JOINT Hand_L
							{
								OFFSET 22.2916 0.0 0.0
								CHANNELS 6 Xposition Yposition Zposition Zrotation Xrotation Yrotation 
								End Site
								{
									OFFSET 0.0 0.0 0.0
								}
							}
						}
					}
				}
				JOINT Shoulder_R
				{
					OFFSET 12.9945 -0.242716 -4.98039
					CHANNELS 6 Xposition Yposition Zposition Zrotation Xrotation Yrotation 
					JOINT UpperArm_R
					{
						OFFSET -5.34813 0.0 0.0
						CHANNELS 6 Xposition Yposition Zposition Zrotation Xrotation Yrotation 
						JOINT LowerArm_R
						{
							OFFSET -24.3289 0.000322201 0.0
							CHANNELS 6 Xposition Yposition Zposition Zrotation Xrotation Yrotation 
							JOINT Hand_R
							{
								OFFSET -22.2915 -0.000108084 0.0
								CHANNELS 6 Xposition Yposition Zposition Zrotation Xrotation Yrotation 
								End Site
								{
									OFFSET 0.0 0.0 0.0
								}
							}
						}
					}
				}
			}
		}
		JOINT UpperLeg_L
		{
			OFFSET -2.19248 -6.46944 0.0
			CHANNELS 6 Xposition Yposition Zposition Zrotation Xrotation Yrotation 
			JOINT LowerLeg_L
			{
				OFFSET 39.0811 0.0 -1.23785e-05
				CHANNELS 6 Xposition Yposition Zposition Zrotation Xrotation Yrotation 
				JOINT Foot_L
				{
					OFFSET 40.9854 0.0 -1.26872e-05
					CHANNELS 6 Xposition Yposition Zposition Zrotation Xrotation Yrotation 
					JOINT Toes_L
					{
						OFFSET 11.7543 0.0 0.0
						CHANNELS 6 Xposition Yposition Zposition Zrotation Xrotation Yrotation 
						End Site
						{
							OFFSET 0.0 0.0 0.0
						}
					}
				}
			}
		}
		JOINT UpperLeg_R
		{
			OFFSET -2.19251 6.46944 0.0
			CHANNELS 6 Xposition Yposition Zposition Zrotation Xrotation Yrotation 
			JOINT LowerLeg_R
			{
				OFFSET -39.0811 -0.00228153 -0.0401928
				CHANNELS 6 Xposition Yposition Zposition Zrotation Xrotation Yrotation 
				JOINT Foot_R
				{
					OFFSET -40.9854 0.0 0.0
					CHANNELS 6 Xposition Yposition Zposition Zrotation Xrotation Yrotation 
					JOINT Toes_R
					{
						OFFSET -11.7543 0.0 0.0
						CHANNELS 6 Xposition Yposition Zposition Zrotation Xrotation Yrotation 
						End Site
						{
							OFFSET 0.0 0.0 0.0
						}
					}
				}
			}
		}
	}
}
MOTION
Frames:	5
Frame Time:	0.0333333
0.000000 0.000000 0.000000 0.000000 0.000000 -0.000000 -1.312590 93.445900 -3.416630 87.894300 1.081730 0.081838 15.735700 0.000005 -0.000001 80.311300 86.967000 -78.643100 8.984550 -0.406207 -0.000000 -1.767570 -1.159360 3.317870 16.377300 -0.000001 -0.000001 -3.022820 2.191770 -0.931667 6.456720 -0.000001 -0.000000 -1.132550 2.906230 -4.300780 12.994200 -0.242716 4.980390 -92.220200 6.797110 -71.862500 5.348090 -0.000007 -0.000001 -68.225200 21.713600 -6.255570 24.328600 0.000019 0.000005 7.383230 24.626600 -17.273900 22.291600 -0.000001 0.000005 -13.648900 5.123450 4.567310 12.994500 -0.242716 -4.980390 89.460800 1.810580 -73.412100 -5.348130 -0.000001 -0.000004 -70.094400 16.936800 -6.157140 -24.328900 0.000322 -0.000009 -0.694083 -6.799060 -5.833380 -22.291500 -0.000108 -0.000004 -16.688800 5.087420 5.400890 -2.192480 -6.469440 -0.000000 -173.167000 -5.571360 -4.332720 39.081100 -0.000007 -0.000012 0.027927 -0.101486 15.386000 40.985400 -0.000006 -0.000013 -1.619070 13.317100 -67.394200 11.754300 -0.000000 0.000003 -0.000444 0.174792 -9.486920 -2.192510 6.469440 -0.000001 178.913000 8.326450 177.631000 -39.081100 -0.002282 -0.040193 0.036195 -0.147691 12.543700 -40.985400 0.000008 0.000006 -4.414790 3.611990 -66.922100 -11.754300 -0.000006 -0.000006 -0.007727 0.253455 -6.280450
0.000000 0.000000 0.000000 0.000000 0.000000 -0.000000 -1.284770 93.466800 -3.020890 87.884300 1.197590 -0.713833 15.735700 0.000005 -0.000001 79.834500 87.321300 -78.196800 8.984550 -0.406207 -0.000000 -2.475240 -1.091530 3.251660 16.377300 -0.000001 -0.000001 -5.097470 2.161540 -1.043290 6.456720 -0.000001 -0.000000 -1.556570 2.880610 -4.689720 12.994200 -0.242716 4.980390 -92.206000 6.566460 -71.383800 5.348090 -0.000007 -0.000001 -64.178300 15.918000 -6.788740 24.328600 0.000019 0.000005 7.175850 27.214700 -15.392000 22.291600 -0.000001 0.000005 -17.912600 5.203690 2.625440 12.994500 -0.242716 -4.980390 89.582100 1.363180 -72.956600 -5.348130 -0.000001 -0.000004 -67.713300 10.017400 -6.027570 -24.328900 0.000322 -0.000009 -0.231882 -6.137500 -2.158320 -22.291500 -0.000108 -0.000004 -17.335000 5.060500 6.004670 -2.192480 -6.469440 -0.000000 -173.208000 -5.704130 -4.665090 39.081100 -0.000007 -0.000012 0.028514 -0.106777 14.951600 40.985400 -0.000006 -0.000013 -1.606530 13.483100 -67.465700 11.754300 -0.000000 0.000003 -0.000464 0.175095 -9.474620 -2.192510 6.469440 -0.000001 178.928000 8.735630 177.400000 -39.081100 -0.002282 -0.040193 0.030746 -0.129915 11.914000 -40.985400 0.000008 0.000006 -4.766470 3.908190 -66.620800 -11.754300 -0.000006 -0.000006 -0.007606 0.252449 -6.321550
0.000000 0.000000 0.000000 0.000000 0.000000 -0.000000 -1.261110 93.494800 -2.485450 87.913300 1.230190 -1.487470 15.735700 0.000005 -0.000001 78.216300 87.741700 -76.661600 8.984550 -0.406207 -0.000000 -3.328470 -1.072350 3.079030 16.377300 -0.000001 -0.000001 -6.998210 2.206590 -1.356060 6.456720 -0.000001 -0.000000 -2.088540 2.819190 -4.553380 12.994200 -0.242716 4.980390 -92.038800 5.942970 -71.025700 5.348090 -0.000007 -0.000001 -59.298100 7.285800 -7.180600 24.328600 0.000019 0.000005 5.417930 26.672700 -11.930000 22.291600 -0.000001 0.000005 -19.941700 5.199020 2.744270 12.994500 -0.242716 -4.980390 89.802300 0.628931 -72.549300 -5.348130 -0.000001 -0.000004 -64.299100 1.158070 -5.853680 -24.328900 0.000322 -0.000009 -0.001032 -6.122610 -0.000039 -22.291500 -0.000108 -0.000004 -16.774100 5.012000 7.062790 -2.192480 -6.469440 -0.000000 -173.278000 -6.144880 -4.700710 39.081100 -0.000007 -0.000012 0.026487 -0.104465 14.227500 40.985400 -0.000006 -0.000013 -1.586500 13.805800 -67.484800 11.754300 -0.000000 0.000003 -0.000677 0.178337 -9.342910 -2.192510 6.469440 -0.000001 178.885000 9.506530 177.411000 -39.081100 -0.002282 -0.040193 0.024427 -0.108062 11.043500 -40.985400 0.000008 0.000006 -4.977950 4.612520 -66.357800 -11.754300 -0.000006 -0.000006 -0.008892 0.262830 -5.897470
0.000000 0.000000 0.000000 0.000000 0.000000 -0.000000 -1.216660 93.504000 -1.825290 87.961700 1.111180 -2.144190 15.735700 0.000005 -0.000001 75.815200 88.151700 -74.356500 8.984550 -0.406207 -0.000000 -4.167350 -1.057020 2.880410 16.377300 -0.000001 -0.000001 -8.922160 2.166560 -1.272730 6.456720 -0.000001 -0.000000 -2.408600 2.992150 -4.853030 12.994200 -0.242716 4.980390 -91.865900 5.282930 -70.515500 5.348090 -0.000007 -0.000001 -53.271900 -3.902040 -7.469910 24.328600 0.000019 0.000005 4.110630 26.964100 -9.006160 22.291600 -0.000001 0.000005 -19.609700 5.149890 3.945290 12.994500 -0.242716 -4.980390 90.119200 -0.369016 -72.092000 -5.348130 -0.000001 -0.000004 -59.696500 -9.396580 -5.578340 -24.328900 0.000322 -0.000009 -0.001038 -5.530310 -0.000036 -22.291500 -0.000108 -0.000004 -15.623900 4.941070 8.548080 -2.192480 -6.469440 -0.000000 -173.363000 -6.735290 -4.524140 39.081100 -0.000007 -0.000012 0.020822 -0.086902 13.474500 40.985400 -0.000006 -0.000013 -1.546240 14.142900 -67.395700 11.754300 -0.000000 0.000003 -0.001118 0.184691 -9.084680 -2.192510 6.469440 -0.000001 178.771000 10.071900 177.596000 -39.081100 -0.002282 -0.040193 0.018120 -0.082135 10.202200 -40.985400 0.000008 0.000006 -5.363500 5.292570 -66.025700 -11.754300 -0.000006 -0.000006 -0.008688 0.261227 -5.962990
0.000000 0.000000 0.000000 0.000000 0.000000 -0.000000 -1.180460 93.520800 -1.086680 88.064200 1.072340 -2.859900 15.735700 0.000005 -0.000001 69.544000 88.613300 -68.209500 8.984550 -0.406207 -0.000000 -5.153540 -1.118580 2.621030 16.377300 -0.000001 -0.000001 -10.463600 2.193790 -1.259140 6.456720 -0.000001 -0.000000 -2.671990 3.123970 -4.737970 12.994200 -0.242716 4.980390 -91.621600 4.379350 -69.658500 5.348090 -0.000007 -0.000001 -46.464300 -14.730900 -8.011030 24.328600 0.000019 0.000005 3.060650 26.760900 -6.772010 22.291600 -0.000001 0.000005 -16.383500 5.081400 5.533740 12.994500 -0.242716 -4.980390 90.392300 -1.166830 -71.417000 -5.348130 -0.000001 -0.000004 -53.486800 -19.612000 -5.101130 -24.328900 0.000322 -0.000009 -0.001039 -4.434230 -0.000030 -22.291500 -0.000108 -0.000004 -15.097800 4.894280 9.491960 -2.192480 -6.469440 -0.000000 -173.533000 -6.933940 -4.180040 39.081100 -0.000007 -0.000012 0.016685 -0.075938 12.392700 40.985400 -0.000006 -0.000013 -1.579220 14.084400 -67.312700 11.754300 -0.000000 0.000003 -0.001796 0.193758 -8.716090 -2.192510 6.469440 -0.000001 178.615000 10.412100 177.886000 -39.081100 -0.002282 -0.040193 0.011752 -0.052290 9.138280 -40.985400 0.000008 0.000006 -6.098990 5.588810 -65.562700 -11.754300 -0.000006 -0.000006 -0.008841 0.262432 -5.913770
